<?xml version="1.0" encoding="UTF-8"?><svg id="Layer_1" xmlns="http://www.w3.org/2000/svg" viewBox="0 0 1975.31 484.76"><defs><style>.cls-1{fill:#1e6791;}.cls-1,.cls-2,.cls-3{stroke-width:0px;}.cls-2{fill:#000;}.cls-3{fill:#fff;}</style></defs><path class="cls-3" d="M339.07,200.6c-3.25-20.65-19.8-32.49-45.5-32.49-9.98,0-19.9,2.3-29.5,6.85.98-11.05-7.01-19.45-15.87-21.55v-12.46c0-2.62-2.13-4.75-4.74-4.75s-4.74,2.13-4.74,4.75v12.46c-8.86,2.09-16.85,10.49-15.87,21.55-9.6-4.55-19.52-6.85-29.5-6.85-25.7,0-42.25,11.83-45.5,32.49-22.78,2.4-34.2,15.92-33.03,39.14.89,17.69,23.25,46.2,36.51,61.62l.22.26h12.59l-1.12-1.25c-9.42-10.5-18.66-22.26-25.37-32.25-8.43-12.56-13.05-22.54-13.36-28.86-.48-9.66,1.56-16.98,6.08-21.74,3.6-3.8,9.2-6.25,16.64-7.29v.36c-.04,1.78-.08,3.62.1,5.61.78,8.81,5.09,20.49,12.8,34.7,3.76,6.92,14.57,25.69,33.78,50.43l.23.29h12.01l-.99-1.22c-.45-.56-45.49-56.28-48.35-84.92-.11-.64-2.56-15.87,6.63-26.74,6.24-7.38,16.38-11.13,30.14-11.13,25.85,0,43.39,18.08,45.37,20.22v103.8h9.49v-103.8c1.98-2.14,19.52-20.22,45.37-20.22,13.75,0,23.89,3.74,30.13,11.12,9.19,10.86,6.74,26.11,6.62,26.81-2.85,28.57-47.88,84.3-48.34,84.86l-.99,1.22h12.01l.23-.29c19.2-24.74,30.02-43.51,33.77-50.43,7.71-14.21,12.02-25.88,12.81-34.7.18-1.99.14-3.83.1-5.62v-.35c7.43,1.04,13.03,3.49,16.63,7.29,4.52,4.76,6.57,12.08,6.09,21.74-.32,6.32-4.94,16.3-13.37,28.86-6.71,9.99-15.95,21.75-25.37,32.25l-1.12,1.25h12.59l.22-.26c13.25-15.42,35.62-43.93,36.51-61.62,1.17-23.22-10.25-36.74-33.03-39.14h-.01ZM255.37,173.62c0,6.57-5.33,11.91-11.89,11.91s-11.89-5.34-11.89-11.91,5.33-11.91,11.89-11.91,11.89,5.34,11.89,11.91Z"/><path class="cls-3" d="M243.46,121.64c2.62,0,4.75-2.13,4.75-4.75v-15.99c0-2.62-2.13-4.75-4.75-4.75s-4.75,2.13-4.75,4.75v15.99c0,2.62,2.13,4.75,4.75,4.75Z"/><path class="cls-3" d="M215.47,133.68h16.01c2.62,0,4.75-2.13,4.75-4.75s-2.13-4.75-4.75-4.75h-16.01c-2.62,0-4.75,2.13-4.75,4.75s2.13,4.75,4.75,4.75Z"/><path class="cls-3" d="M255.45,133.68h16.01c2.62,0,4.75-2.13,4.75-4.75s-2.13-4.75-4.75-4.75h-16.01c-2.62,0-4.75,2.13-4.75,4.75s2.13,4.75,4.75,4.75Z"/><rect class="cls-3" x="150.73" y="328.11" width="185.46" height="9.5"/><rect class="cls-3" x="150.73" y="344.1" width="185.46" height="9.5"/><rect class="cls-3" x="150.73" y="312.12" width="185.46" height="9.5"/><path class="cls-1" d="M12.94,241.81c0,127.32,103.21,230.52,230.52,230.52s230.52-103.2,230.52-230.52S370.77,11.29,243.46,11.29,12.94,114.5,12.94,241.81Z"/><path class="cls-3" d="M339.07,198.34c-3.25-20.65-19.8-32.49-45.5-32.49-9.98,0-19.9,2.3-29.5,6.85.98-11.05-7.01-19.45-15.87-21.55v-12.46c0-2.62-2.13-4.75-4.74-4.75s-4.74,2.13-4.74,4.75v12.46c-8.86,2.09-16.85,10.49-15.87,21.55-9.6-4.55-19.52-6.85-29.5-6.85-25.7,0-42.25,11.83-45.5,32.49-22.78,2.4-34.2,15.92-33.03,39.14.89,17.69,23.25,46.2,36.51,61.62l.22.26h12.59l-1.12-1.25c-9.42-10.5-18.66-22.26-25.37-32.25-8.43-12.56-13.05-22.54-13.36-28.86-.48-9.66,1.56-16.98,6.08-21.74,3.6-3.8,9.2-6.25,16.64-7.29v.36c-.04,1.78-.08,3.62.1,5.61.78,8.81,5.09,20.49,12.8,34.7,3.76,6.92,14.57,25.69,33.78,50.43l.23.29h12.01l-.99-1.22c-.45-.56-45.49-56.28-48.35-84.92-.11-.64-2.56-15.87,6.63-26.74,6.24-7.38,16.38-11.13,30.14-11.13,25.85,0,43.39,18.08,45.37,20.22v103.8h9.49v-103.8c1.98-2.14,19.52-20.22,45.37-20.22,13.75,0,23.89,3.74,30.13,11.12,9.19,10.86,6.74,26.11,6.62,26.81-2.85,28.57-47.88,84.3-48.34,84.86l-.99,1.22h12.01l.23-.29c19.2-24.74,30.02-43.51,33.77-50.43,7.71-14.21,12.02-25.88,12.81-34.7.18-1.99.14-3.83.1-5.62v-.35c7.43,1.04,13.03,3.49,16.63,7.29,4.52,4.76,6.57,12.08,6.09,21.74-.32,6.32-4.94,16.3-13.37,28.86-6.71,9.99-15.95,21.75-25.37,32.25l-1.12,1.25h12.59l.22-.26c13.25-15.42,35.62-43.93,36.51-61.62,1.17-23.22-10.25-36.74-33.03-39.14h-.01ZM255.37,171.36c0,6.57-5.33,11.91-11.89,11.91s-11.89-5.34-11.89-11.91,5.33-11.91,11.89-11.91,11.89,5.34,11.89,11.91Z"/><path class="cls-3" d="M243.46,119.38c2.62,0,4.75-2.13,4.75-4.75v-15.99c0-2.62-2.13-4.75-4.75-4.75s-4.75,2.13-4.75,4.75v15.99c0,2.62,2.13,4.75,4.75,4.75Z"/><path class="cls-3" d="M215.47,131.42h16.01c2.62,0,4.75-2.13,4.75-4.75s-2.13-4.75-4.75-4.75h-16.01c-2.62,0-4.75,2.13-4.75,4.75s2.13,4.75,4.75,4.75Z"/><path class="cls-3" d="M255.45,131.42h16.01c2.62,0,4.75-2.13,4.75-4.75s-2.13-4.75-4.75-4.75h-16.01c-2.62,0-4.75,2.13-4.75,4.75s2.13,4.75,4.75,4.75Z"/><rect class="cls-3" x="150.73" y="325.85" width="185.46" height="9.5"/><rect class="cls-3" x="150.73" y="341.84" width="185.46" height="9.5"/><rect class="cls-3" x="150.73" y="309.86" width="185.46" height="9.5"/><path class="cls-2" d="M634.76,262.64h-33.66l-7.56,21.02h-10.92l30.68-80.34h9.27l30.73,80.34h-10.87l-7.67-21.02ZM604.3,253.98h27.31l-13.68-37.57-13.63,37.57Z"/><path class="cls-2" d="M659.86,253.32c0-9.31,2.15-16.71,6.46-22.21s10-8.25,17.1-8.25,12.97,2.58,17.05,7.72l.5-6.62h9.33v58.27c0,7.72-2.29,13.81-6.87,18.26-4.58,4.45-10.73,6.68-18.46,6.68-4.3,0-8.52-.92-12.63-2.76-4.12-1.84-7.27-4.36-9.44-7.56l5.3-6.12c4.38,5.41,9.73,8.11,16.06,8.11,4.97,0,8.84-1.4,11.61-4.19,2.78-2.8,4.17-6.73,4.17-11.81v-5.13c-4.08,4.71-9.66,7.06-16.72,7.06s-12.64-2.81-16.97-8.44c-4.32-5.63-6.48-13.3-6.48-23.01ZM670.12,254.48c0,6.73,1.38,12.02,4.14,15.86,2.76,3.84,6.62,5.77,11.59,5.77,6.44,0,11.16-2.92,14.18-8.77v-27.26c-3.13-5.7-7.82-8.55-14.07-8.55-4.97,0-8.85,1.93-11.64,5.79-2.8,3.86-4.19,9.58-4.19,17.16Z"/><path class="cls-2" d="M750.23,284.77c-8.09,0-14.68-2.66-19.75-7.97s-7.61-12.42-7.61-21.33v-1.88c0-5.92,1.13-11.21,3.39-15.86,2.26-4.65,5.43-8.29,9.49-10.92s8.47-3.95,13.21-3.95c7.76,0,13.79,2.56,18.1,7.67,4.3,5.11,6.46,12.43,6.46,21.96v4.25h-40.44c.15,5.89,1.87,10.64,5.16,14.26,3.29,3.62,7.48,5.44,12.55,5.44,3.6,0,6.66-.74,9.16-2.21,2.5-1.47,4.69-3.42,6.57-5.85l6.23,4.86c-5,7.69-12.51,11.53-22.51,11.53ZM748.96,231.25c-4.12,0-7.58,1.5-10.37,4.5-2.8,3-4.52,7.2-5.19,12.61h29.91v-.77c-.29-5.19-1.69-9.21-4.19-12.06-2.5-2.85-5.89-4.28-10.15-4.28Z"/><path class="cls-2" d="M794.75,223.97l.33,7.5c4.56-5.74,10.52-8.61,17.88-8.61,12.62,0,18.98,7.12,19.09,21.35v39.45h-10.21v-39.51c-.04-4.3-1.02-7.48-2.95-9.54-1.93-2.06-4.94-3.09-9.02-3.09-3.31,0-6.22.88-8.72,2.65-2.5,1.77-4.45,4.08-5.85,6.95v42.54h-10.21v-59.7h9.66Z"/><path class="cls-2" d="M871.17,276.44c3.64,0,6.82-1.1,9.54-3.31,2.72-2.21,4.23-4.97,4.52-8.28h9.66c-.18,3.42-1.36,6.68-3.53,9.77-2.17,3.09-5.07,5.55-8.69,7.39s-7.46,2.76-11.5,2.76c-8.13,0-14.59-2.71-19.39-8.14-4.8-5.42-7.2-12.85-7.2-22.26v-1.71c0-5.81,1.07-10.98,3.2-15.5,2.13-4.52,5.2-8.04,9.19-10.54,3.99-2.5,8.71-3.75,14.15-3.75,6.69,0,12.26,2.01,16.69,6.01,4.43,4.01,6.79,9.21,7.09,15.61h-9.66c-.29-3.86-1.76-7.04-4.39-9.52-2.63-2.48-5.88-3.72-9.74-3.72-5.19,0-9.21,1.87-12.06,5.6s-4.28,9.13-4.28,16.19v1.93c0,6.88,1.42,12.18,4.25,15.89,2.83,3.72,6.88,5.57,12.14,5.57Z"/><path class="cls-2" d="M925.67,268.71l13.9-44.75h10.92l-24,68.92c-3.72,9.93-9.62,14.9-17.71,14.9l-1.93-.17-3.81-.72v-8.28l2.76.22c3.46,0,6.15-.7,8.08-2.1,1.93-1.4,3.52-3.96,4.77-7.67l2.26-6.07-21.3-59.04h11.15l14.9,44.75Z"/><path class="cls-2" d="M992.15,283.67v-51.81h-9.44v-7.89h9.44v-6.12c0-6.4,1.71-11.35,5.13-14.84,3.42-3.49,8.26-5.24,14.51-5.24,2.35,0,4.69.31,7.01.93l-.55,8.23c-1.73-.33-3.57-.5-5.52-.5-3.31,0-5.87.97-7.67,2.91-1.8,1.94-2.7,4.71-2.7,8.33v6.31h12.75v7.89h-12.75v51.81h-10.21Z"/><path class="cls-2" d="M1023.43,253.26c0-5.85,1.15-11.11,3.45-15.78,2.3-4.67,5.5-8.28,9.6-10.81,4.1-2.54,8.78-3.81,14.04-3.81,8.13,0,14.7,2.81,19.73,8.44,5.02,5.63,7.53,13.11,7.53,22.46v.72c0,5.81-1.11,11.03-3.34,15.64-2.23,4.62-5.41,8.21-9.55,10.79-4.14,2.58-8.89,3.86-14.26,3.86-8.09,0-14.65-2.81-19.67-8.44-5.02-5.63-7.53-13.08-7.53-22.35v-.72ZM1033.69,254.48c0,6.62,1.54,11.94,4.61,15.95,3.07,4.01,7.18,6.01,12.33,6.01s9.31-2.03,12.36-6.1c3.05-4.06,4.58-9.76,4.58-17.08,0-6.55-1.55-11.85-4.66-15.92-3.11-4.06-7.24-6.1-12.39-6.1s-9.1,2.01-12.19,6.01c-3.09,4.01-4.63,9.75-4.63,17.21Z"/><path class="cls-2" d="M1119.21,233.12c-1.54-.26-3.22-.39-5.02-.39-6.7,0-11.24,2.85-13.63,8.55v42.38h-10.21v-59.7h9.93l.17,6.9c3.35-5.33,8.09-8,14.23-8,1.99,0,3.5.26,4.53.77v9.49Z"/><path class="cls-2" d="M1216.81,258.17c-.99,8.5-4.13,15.05-9.41,19.67-5.28,4.62-12.3,6.92-21.05,6.92-9.49,0-17.1-3.4-22.82-10.21-5.72-6.8-8.58-15.91-8.58-27.31v-7.72c0-7.47,1.33-14.03,4-19.7,2.67-5.66,6.45-10.01,11.34-13.05,4.89-3.03,10.56-4.55,16.99-4.55,8.53,0,15.38,2.38,20.53,7.15,5.15,4.76,8.15,11.36,8.99,19.78h-10.65c-.92-6.42-2.92-11.07-5.99-13.95s-7.37-4.32-12.88-4.32c-6.77,0-12.07,2.5-15.92,7.51-3.84,5.01-5.77,12.13-5.77,21.37v7.79c0,8.72,1.82,15.67,5.46,20.82,3.64,5.15,8.74,7.73,15.28,7.73,5.88,0,10.4-1.33,13.55-4,3.14-2.67,5.23-7.31,6.26-13.93h10.65Z"/><path class="cls-2" d="M1240.53,283.67h-10.21v-84.75h10.21v84.75Z"/><path class="cls-2" d="M1256.69,208.13c0-1.66.51-3.05,1.52-4.19,1.01-1.14,2.51-1.71,4.5-1.71s3.49.57,4.52,1.71c1.03,1.14,1.54,2.54,1.54,4.19s-.52,3.03-1.54,4.14c-1.03,1.1-2.54,1.66-4.52,1.66s-3.49-.55-4.5-1.66-1.52-2.48-1.52-4.14ZM1267.72,283.67h-10.21v-59.7h10.21v59.7Z"/><path class="cls-2" d="M1293.43,223.97l.28,6.62c4.38-5.15,10.28-7.72,17.71-7.72,8.35,0,14.03,3.2,17.05,9.6,1.99-2.87,4.57-5.19,7.75-6.95,3.18-1.77,6.94-2.65,11.28-2.65,13.09,0,19.75,6.93,19.97,20.8v40h-10.21v-39.4c0-4.27-.98-7.46-2.92-9.57-1.95-2.11-5.22-3.17-9.82-3.17-3.79,0-6.93,1.13-9.44,3.39-2.5,2.26-3.95,5.31-4.36,9.13v39.62h-10.26v-39.12c0-8.68-4.25-13.02-12.75-13.02-6.69,0-11.27,2.85-13.74,8.55v43.59h-10.21v-59.7h9.66Z"/><path class="cls-2" d="M1419.5,283.67c-.59-1.18-1.07-3.27-1.43-6.29-4.75,4.93-10.41,7.39-16.99,7.39-5.89,0-10.71-1.66-14.48-4.99-3.77-3.33-5.66-7.55-5.66-12.66,0-6.22,2.36-11.04,7.09-14.48,4.73-3.44,11.38-5.16,19.95-5.16h9.93v-4.69c0-3.57-1.07-6.41-3.2-8.53-2.13-2.11-5.28-3.17-9.43-3.17-3.64,0-6.7.92-9.16,2.76-2.46,1.84-3.7,4.06-3.7,6.68h-10.26c0-2.98,1.06-5.86,3.17-8.63s4.98-4.97,8.61-6.59c3.62-1.62,7.61-2.43,11.95-2.43,6.88,0,12.27,1.72,16.17,5.16,3.9,3.44,5.92,8.18,6.07,14.21v27.48c0,5.48.7,9.84,2.1,13.08v.88h-10.7ZM1402.56,275.89c3.2,0,6.24-.83,9.1-2.48s4.95-3.81,6.24-6.46v-12.25h-8c-12.51,0-18.76,3.66-18.76,10.98,0,3.2,1.07,5.7,3.2,7.5,2.13,1.8,4.87,2.7,8.22,2.7Z"/><path class="cls-2" d="M1457.73,209.51v14.46h11.14v7.89h-11.14v37.07c0,2.39.5,4.19,1.49,5.39.99,1.2,2.68,1.79,5.08,1.79,1.18,0,2.79-.22,4.86-.66v8.23c-2.69.73-5.3,1.1-7.83,1.1-4.56,0-8-1.38-10.32-4.14-2.32-2.76-3.48-6.68-3.48-11.75v-37.02h-10.87v-7.89h10.87v-14.46h10.21Z"/><path class="cls-2" d="M1505.34,284.77c-8.09,0-14.68-2.66-19.75-7.97s-7.62-12.42-7.62-21.33v-1.88c0-5.92,1.13-11.21,3.39-15.86,2.26-4.65,5.43-8.29,9.49-10.92s8.47-3.95,13.21-3.95c7.76,0,13.79,2.56,18.1,7.67,4.3,5.11,6.46,12.43,6.46,21.96v4.25h-40.44c.15,5.89,1.87,10.64,5.16,14.26,3.29,3.62,7.48,5.44,12.55,5.44,3.6,0,6.66-.74,9.16-2.21,2.5-1.47,4.69-3.42,6.57-5.85l6.23,4.86c-5,7.69-12.51,11.53-22.51,11.53ZM1504.07,231.25c-4.12,0-7.58,1.5-10.37,4.5-2.8,3-4.52,7.2-5.19,12.61h29.91v-.77c-.29-5.19-1.69-9.21-4.19-12.06-2.5-2.85-5.89-4.28-10.15-4.28Z"/><path class="cls-2" d="M1569.56,283.67v-80.34h22.68c6.99,0,13.17,1.54,18.54,4.63,5.37,3.09,9.52,7.49,12.44,13.19,2.92,5.7,4.4,12.25,4.44,19.64v5.13c0,7.58-1.46,14.22-4.39,19.92-2.92,5.7-7.1,10.08-12.52,13.13-5.43,3.05-11.74,4.62-18.95,4.69h-22.24ZM1580.15,211.99v63.01h11.15c8.17,0,14.52-2.54,19.06-7.62,4.54-5.08,6.81-12.32,6.81-21.7v-4.69c0-9.13-2.14-16.23-6.43-21.29-4.29-5.06-10.36-7.63-18.24-7.7h-12.36Z"/><path class="cls-2" d="M1678.69,283.67c-.59-1.18-1.07-3.27-1.43-6.29-4.75,4.93-10.41,7.39-16.99,7.39-5.89,0-10.71-1.66-14.48-4.99-3.77-3.33-5.66-7.55-5.66-12.66,0-6.22,2.36-11.04,7.09-14.48,4.73-3.44,11.38-5.16,19.95-5.16h9.93v-4.69c0-3.57-1.07-6.41-3.2-8.53-2.13-2.11-5.28-3.17-9.43-3.17-3.64,0-6.7.92-9.16,2.76-2.46,1.84-3.7,4.06-3.7,6.68h-10.26c0-2.98,1.06-5.86,3.17-8.63s4.98-4.97,8.61-6.59c3.62-1.62,7.61-2.43,11.95-2.43,6.88,0,12.27,1.72,16.17,5.16,3.9,3.44,5.92,8.18,6.07,14.21v27.48c0,5.48.7,9.84,2.1,13.08v.88h-10.7ZM1661.75,275.89c3.2,0,6.24-.83,9.1-2.48s4.95-3.81,6.24-6.46v-12.25h-8c-12.51,0-18.76,3.66-18.76,10.98,0,3.2,1.07,5.7,3.2,7.5,2.13,1.8,4.87,2.7,8.22,2.7Z"/><path class="cls-2" d="M1716.92,209.51v14.46h11.14v7.89h-11.14v37.07c0,2.39.5,4.19,1.49,5.39.99,1.2,2.68,1.79,5.08,1.79,1.18,0,2.79-.22,4.86-.66v8.23c-2.69.73-5.3,1.1-7.83,1.1-4.56,0-8-1.38-10.32-4.14-2.32-2.76-3.48-6.68-3.48-11.75v-37.02h-10.87v-7.89h10.87v-14.46h10.21Z"/><path class="cls-2" d="M1776.62,283.67c-.59-1.18-1.07-3.27-1.43-6.29-4.75,4.93-10.41,7.39-16.99,7.39-5.89,0-10.71-1.66-14.48-4.99-3.77-3.33-5.66-7.55-5.66-12.66,0-6.22,2.36-11.04,7.09-14.48,4.73-3.44,11.38-5.16,19.95-5.16h9.93v-4.69c0-3.57-1.07-6.41-3.2-8.53-2.13-2.11-5.28-3.17-9.43-3.17-3.64,0-6.7.92-9.16,2.76-2.46,1.84-3.7,4.06-3.7,6.68h-10.26c0-2.98,1.06-5.86,3.17-8.63s4.98-4.97,8.61-6.59c3.62-1.62,7.61-2.43,11.95-2.43,6.88,0,12.27,1.72,16.17,5.16,3.9,3.44,5.92,8.18,6.07,14.21v27.48c0,5.48.7,9.84,2.1,13.08v.88h-10.7ZM1759.68,275.89c3.2,0,6.24-.83,9.1-2.48s4.95-3.81,6.24-6.46v-12.25h-8c-12.51,0-18.76,3.66-18.76,10.98,0,3.2,1.07,5.7,3.2,7.5,2.13,1.8,4.87,2.7,8.22,2.7Z"/></svg>