<?xml version="1.0" encoding="UTF-8"?><svg id="Layer_1" xmlns="http://www.w3.org/2000/svg" viewBox="0 0 1750.94 484.76"><defs><style>.cls-1{fill:#fff;stroke-width:0px;}</style></defs><path class="cls-1" d="M339.07,200.6c-3.25-20.65-19.8-32.49-45.5-32.49-9.98,0-19.9,2.3-29.5,6.85.98-11.05-7.01-19.45-15.87-21.55v-12.46c0-2.62-2.13-4.75-4.74-4.75s-4.74,2.13-4.74,4.75v12.46c-8.86,2.09-16.85,10.49-15.87,21.55-9.6-4.55-19.52-6.85-29.5-6.85-25.7,0-42.25,11.83-45.5,32.49-22.78,2.4-34.2,15.92-33.03,39.14.89,17.69,23.25,46.2,36.51,61.62l.22.26h12.59l-1.12-1.25c-9.42-10.5-18.66-22.26-25.37-32.25-8.43-12.56-13.05-22.54-13.36-28.86-.48-9.66,1.56-16.98,6.08-21.74,3.6-3.8,9.2-6.25,16.64-7.29v.36c-.04,1.78-.08,3.62.1,5.61.78,8.81,5.09,20.49,12.8,34.7,3.76,6.92,14.57,25.69,33.78,50.43l.23.29h12.01l-.99-1.22c-.45-.56-45.49-56.28-48.35-84.92-.11-.64-2.56-15.87,6.63-26.74,6.24-7.38,16.38-11.13,30.14-11.13,25.85,0,43.39,18.08,45.37,20.22v103.8h9.49v-103.8c1.98-2.14,19.52-20.22,45.37-20.22,13.75,0,23.89,3.74,30.13,11.12,9.19,10.86,6.74,26.11,6.62,26.81-2.85,28.57-47.88,84.3-48.34,84.86l-.99,1.22h12.01l.23-.29c19.2-24.74,30.02-43.51,33.77-50.43,7.71-14.21,12.02-25.88,12.81-34.7.18-1.99.14-3.83.1-5.62v-.35c7.43,1.04,13.03,3.49,16.63,7.29,4.52,4.76,6.57,12.08,6.09,21.74-.32,6.32-4.94,16.3-13.37,28.86-6.71,9.99-15.95,21.75-25.37,32.25l-1.12,1.25h12.59l.22-.26c13.25-15.42,35.62-43.93,36.51-61.62,1.17-23.22-10.25-36.74-33.03-39.14h-.01ZM255.37,173.62c0,6.57-5.33,11.91-11.89,11.91s-11.89-5.34-11.89-11.91,5.33-11.91,11.89-11.91,11.89,5.34,11.89,11.91Z"/><path class="cls-1" d="M243.46,121.64c2.62,0,4.75-2.13,4.75-4.75v-15.99c0-2.62-2.13-4.75-4.75-4.75s-4.75,2.13-4.75,4.75v15.99c0,2.62,2.13,4.75,4.75,4.75Z"/><path class="cls-1" d="M215.47,133.68h16.01c2.62,0,4.75-2.13,4.75-4.75s-2.13-4.75-4.75-4.75h-16.01c-2.62,0-4.75,2.13-4.75,4.75s2.13,4.75,4.75,4.75Z"/><path class="cls-1" d="M255.45,133.68h16.01c2.62,0,4.75-2.13,4.75-4.75s-2.13-4.75-4.75-4.75h-16.01c-2.62,0-4.75,2.13-4.75,4.75s2.13,4.75,4.75,4.75Z"/><rect class="cls-1" x="150.73" y="328.11" width="185.46" height="9.5"/><rect class="cls-1" x="150.73" y="344.1" width="185.46" height="9.5"/><rect class="cls-1" x="150.73" y="312.12" width="185.46" height="9.5"/><path class="cls-1" d="M610.81,248.57l-9.82,10.21v27.15h-10.59v-80.34h10.59v39.73l35.7-39.73h12.8l-31.62,35.48,34.1,44.86h-12.69l-28.47-37.35Z"/><path class="cls-1" d="M670.51,285.92h-10.21v-84.75h10.21v84.75Z"/><path class="cls-1" d="M686.67,210.39c0-1.66.51-3.05,1.52-4.19,1.01-1.14,2.51-1.71,4.5-1.71s3.49.57,4.52,1.71c1.03,1.14,1.54,2.54,1.54,4.19s-.52,3.04-1.54,4.14c-1.03,1.1-2.54,1.66-4.52,1.66s-3.49-.55-4.5-1.66-1.52-2.48-1.52-4.14ZM697.7,285.92h-10.21v-59.7h10.21v59.7Z"/><path class="cls-1" d="M723.41,226.22l.28,6.62c4.38-5.15,10.28-7.72,17.71-7.72,8.35,0,14.03,3.2,17.05,9.6,1.99-2.87,4.57-5.19,7.75-6.95,3.18-1.77,6.94-2.65,11.28-2.65,13.09,0,19.75,6.93,19.97,20.8v40h-10.21v-39.4c0-4.27-.98-7.46-2.92-9.57-1.95-2.12-5.22-3.17-9.82-3.17-3.79,0-6.93,1.13-9.44,3.39-2.5,2.26-3.95,5.31-4.36,9.13v39.62h-10.26v-39.12c0-8.68-4.25-13.02-12.75-13.02-6.7,0-11.27,2.85-13.74,8.55v43.59h-10.21v-59.7h9.66Z"/><path class="cls-1" d="M849.48,285.92c-.59-1.18-1.07-3.27-1.43-6.29-4.75,4.93-10.41,7.39-16.99,7.39-5.89,0-10.71-1.66-14.48-4.99-3.77-3.33-5.66-7.55-5.66-12.66,0-6.22,2.36-11.04,7.09-14.48,4.73-3.44,11.37-5.16,19.95-5.16h9.93v-4.69c0-3.57-1.07-6.41-3.2-8.52-2.13-2.12-5.28-3.17-9.44-3.17-3.64,0-6.7.92-9.16,2.76-2.46,1.84-3.7,4.07-3.7,6.68h-10.26c0-2.98,1.06-5.86,3.17-8.63s4.98-4.97,8.61-6.59c3.62-1.62,7.6-2.43,11.95-2.43,6.88,0,12.27,1.72,16.17,5.16,3.9,3.44,5.92,8.17,6.07,14.21v27.48c0,5.48.7,9.84,2.1,13.08v.88h-10.7ZM832.54,278.14c3.2,0,6.23-.83,9.1-2.48s4.95-3.81,6.23-6.46v-12.25h-8c-12.51,0-18.76,3.66-18.76,10.98,0,3.2,1.07,5.7,3.2,7.5,2.13,1.8,4.87,2.7,8.22,2.7Z"/><path class="cls-1" d="M871.38,255.58c0-9.16,2.17-16.53,6.51-22.1,4.34-5.57,10.02-8.36,17.05-8.36s12.52,2.39,16.61,7.17v-31.12h10.21v84.75h-9.38l-.5-6.4c-4.08,5-9.77,7.5-17.05,7.5s-12.55-2.83-16.91-8.5c-4.36-5.66-6.54-13.06-6.54-22.18v-.77ZM881.59,256.73c0,6.77,1.4,12.07,4.19,15.89,2.79,3.83,6.66,5.74,11.59,5.74,6.47,0,11.2-2.91,14.18-8.72v-27.42c-3.05-5.63-7.74-8.44-14.07-8.44-5,0-8.9,1.93-11.7,5.79-2.8,3.86-4.19,9.58-4.19,17.16Z"/><path class="cls-1" d="M974.22,285.92c-.59-1.18-1.07-3.27-1.43-6.29-4.75,4.93-10.41,7.39-16.99,7.39-5.89,0-10.71-1.66-14.48-4.99-3.77-3.33-5.66-7.55-5.66-12.66,0-6.22,2.36-11.04,7.09-14.48,4.73-3.44,11.37-5.16,19.95-5.16h9.93v-4.69c0-3.57-1.07-6.41-3.2-8.52-2.13-2.12-5.28-3.17-9.44-3.17-3.64,0-6.7.92-9.16,2.76-2.46,1.84-3.7,4.07-3.7,6.68h-10.26c0-2.98,1.06-5.86,3.17-8.63s4.98-4.97,8.61-6.59c3.62-1.62,7.6-2.43,11.95-2.43,6.88,0,12.27,1.72,16.17,5.16,3.9,3.44,5.92,8.17,6.07,14.21v27.48c0,5.48.7,9.84,2.1,13.08v.88h-10.7ZM957.29,278.14c3.2,0,6.23-.83,9.1-2.48s4.95-3.81,6.23-6.46v-12.25h-8c-12.51,0-18.76,3.66-18.76,10.98,0,3.2,1.07,5.7,3.2,7.5,2.13,1.8,4.87,2.7,8.22,2.7Z"/><path class="cls-1" d="M1012.46,211.77v14.46h11.14v7.89h-11.14v37.07c0,2.39.5,4.19,1.49,5.39.99,1.2,2.68,1.79,5.08,1.79,1.18,0,2.79-.22,4.86-.66v8.23c-2.69.73-5.3,1.1-7.83,1.1-4.56,0-8-1.38-10.32-4.14-2.32-2.76-3.48-6.68-3.48-11.75v-37.02h-10.87v-7.89h10.87v-14.46h10.21Z"/><path class="cls-1" d="M1072.15,285.92c-.59-1.18-1.07-3.27-1.43-6.29-4.75,4.93-10.41,7.39-16.99,7.39-5.89,0-10.71-1.66-14.48-4.99-3.77-3.33-5.66-7.55-5.66-12.66,0-6.22,2.36-11.04,7.09-14.48,4.73-3.44,11.38-5.16,19.95-5.16h9.93v-4.69c0-3.57-1.07-6.41-3.2-8.52-2.13-2.12-5.28-3.17-9.43-3.17-3.64,0-6.7.92-9.16,2.76-2.46,1.84-3.7,4.07-3.7,6.68h-10.26c0-2.98,1.06-5.86,3.17-8.63s4.98-4.97,8.61-6.59c3.62-1.62,7.61-2.43,11.95-2.43,6.88,0,12.27,1.72,16.17,5.16,3.9,3.44,5.92,8.17,6.07,14.21v27.48c0,5.48.7,9.84,2.1,13.08v.88h-10.7ZM1055.21,278.14c3.2,0,6.24-.83,9.1-2.48s4.95-3.81,6.24-6.46v-12.25h-8c-12.51,0-18.76,3.66-18.76,10.98,0,3.2,1.07,5.7,3.2,7.5,2.13,1.8,4.87,2.7,8.22,2.7Z"/><path class="cls-1" d="M1131.29,270.09c0-2.76-1.04-4.9-3.12-6.43-2.08-1.53-5.7-2.84-10.87-3.95s-9.27-2.43-12.3-3.97c-3.04-1.54-5.28-3.38-6.73-5.52-1.45-2.13-2.18-4.67-2.18-7.61,0-4.89,2.07-9.03,6.21-12.41,4.14-3.38,9.43-5.08,15.86-5.08,6.77,0,12.26,1.75,16.47,5.24,4.21,3.5,6.32,7.96,6.32,13.41h-10.26c0-2.79-1.19-5.21-3.56-7.23-2.37-2.02-5.36-3.03-8.97-3.03s-6.62.81-8.72,2.43c-2.1,1.62-3.15,3.73-3.15,6.34,0,2.46.97,4.32,2.92,5.57,1.95,1.25,5.47,2.45,10.57,3.59,5.09,1.14,9.22,2.5,12.39,4.08,3.16,1.58,5.51,3.49,7.04,5.71,1.53,2.23,2.29,4.94,2.29,8.14,0,5.33-2.13,9.61-6.4,12.83-4.27,3.22-9.8,4.83-16.61,4.83-4.78,0-9.01-.85-12.69-2.54-3.68-1.69-6.56-4.06-8.63-7.09-2.08-3.04-3.12-6.32-3.12-9.85h10.21c.18,3.42,1.55,6.13,4.11,8.14s5.93,3.01,10.12,3.01c3.86,0,6.96-.78,9.3-2.34s3.5-3.65,3.5-6.26Z"/><path class="cls-1" d="M1168.42,211.77v14.46h11.14v7.89h-11.14v37.07c0,2.39.5,4.19,1.49,5.39.99,1.2,2.68,1.79,5.08,1.79,1.18,0,2.79-.22,4.86-.66v8.23c-2.69.73-5.3,1.1-7.83,1.1-4.56,0-8-1.38-10.32-4.14-2.32-2.76-3.48-6.68-3.48-11.75v-37.02h-10.87v-7.89h10.87v-14.46h10.21Z"/><path class="cls-1" d="M1210.79,270.97l13.9-44.75h10.92l-24,68.91c-3.71,9.93-9.62,14.9-17.71,14.9l-1.93-.17-3.81-.72v-8.28l2.76.22c3.46,0,6.15-.7,8.08-2.1,1.93-1.4,3.52-3.95,4.77-7.67l2.26-6.07-21.3-59.04h11.15l14.9,44.75Z"/><path class="cls-1" d="M1273.36,235.38c-1.54-.26-3.22-.39-5.02-.39-6.7,0-11.24,2.85-13.63,8.55v42.38h-10.21v-59.7h9.93l.17,6.9c3.35-5.33,8.09-8,14.23-8,1.99,0,3.5.26,4.53.77v9.49Z"/><path class="cls-1" d="M1306.23,287.03c-8.09,0-14.68-2.66-19.75-7.97s-7.62-12.42-7.62-21.33v-1.88c0-5.92,1.13-11.21,3.39-15.86,2.26-4.65,5.43-8.29,9.49-10.92s8.47-3.95,13.21-3.95c7.76,0,13.79,2.56,18.1,7.67,4.3,5.11,6.46,12.43,6.46,21.96v4.25h-40.44c.15,5.89,1.87,10.64,5.16,14.26,3.29,3.62,7.48,5.43,12.55,5.43,3.6,0,6.66-.74,9.16-2.21,2.5-1.47,4.69-3.42,6.57-5.85l6.23,4.86c-5,7.69-12.51,11.53-22.51,11.53ZM1304.96,233.51c-4.12,0-7.58,1.5-10.37,4.5-2.8,3-4.52,7.2-5.19,12.61h29.91v-.77c-.29-5.19-1.69-9.21-4.19-12.06-2.5-2.85-5.89-4.28-10.15-4.28Z"/><path class="cls-1" d="M1352.19,285.92h-10.21v-84.75h10.21v84.75Z"/><path class="cls-1" d="M1403.06,270.09c0-2.76-1.04-4.9-3.12-6.43-2.08-1.53-5.7-2.84-10.87-3.95s-9.27-2.43-12.3-3.97c-3.04-1.54-5.28-3.38-6.73-5.52-1.45-2.13-2.18-4.67-2.18-7.61,0-4.89,2.07-9.03,6.21-12.41,4.14-3.38,9.43-5.08,15.86-5.08,6.77,0,12.26,1.75,16.47,5.24,4.21,3.5,6.32,7.96,6.32,13.41h-10.26c0-2.79-1.19-5.21-3.56-7.23-2.37-2.02-5.36-3.03-8.97-3.03s-6.62.81-8.72,2.43c-2.1,1.62-3.15,3.73-3.15,6.34,0,2.46.97,4.32,2.92,5.57,1.95,1.25,5.47,2.45,10.57,3.59,5.09,1.14,9.22,2.5,12.39,4.08,3.16,1.58,5.51,3.49,7.04,5.71,1.53,2.23,2.29,4.94,2.29,8.14,0,5.33-2.13,9.61-6.4,12.83-4.27,3.22-9.8,4.83-16.61,4.83-4.78,0-9.01-.85-12.69-2.54-3.68-1.69-6.56-4.06-8.63-7.09-2.08-3.04-3.12-6.32-3.12-9.85h10.21c.18,3.42,1.55,6.13,4.11,8.14s5.93,3.01,10.12,3.01c3.86,0,6.96-.78,9.3-2.34s3.5-3.65,3.5-6.26Z"/><path class="cls-1" d="M1451.11,287.03c-8.09,0-14.68-2.66-19.75-7.97s-7.62-12.42-7.62-21.33v-1.88c0-5.92,1.13-11.21,3.39-15.86,2.26-4.65,5.43-8.29,9.49-10.92s8.47-3.95,13.21-3.95c7.76,0,13.79,2.56,18.1,7.67,4.3,5.11,6.46,12.43,6.46,21.96v4.25h-40.44c.15,5.89,1.87,10.64,5.16,14.26,3.29,3.62,7.48,5.43,12.55,5.43,3.6,0,6.66-.74,9.16-2.21,2.5-1.47,4.69-3.42,6.57-5.85l6.23,4.86c-5,7.69-12.51,11.53-22.51,11.53ZM1449.84,233.51c-4.12,0-7.58,1.5-10.37,4.5-2.8,3-4.52,7.2-5.19,12.61h29.91v-.77c-.29-5.19-1.69-9.21-4.19-12.06-2.5-2.85-5.89-4.28-10.15-4.28Z"/><path class="cls-1" d="M1495.63,226.22l.33,7.5c4.56-5.74,10.52-8.61,17.88-8.61,12.62,0,18.98,7.12,19.09,21.35v39.45h-10.21v-39.51c-.04-4.3-1.02-7.49-2.95-9.55-1.93-2.06-4.94-3.09-9.02-3.09-3.31,0-6.22.88-8.72,2.65-2.5,1.77-4.45,4.08-5.85,6.95v42.54h-10.21v-59.7h9.66Z"/><path class="cls-1" d="M243.41,480.49c-63.18,0-122.57-24.6-167.25-69.27C31.49,366.55,6.89,307.15,6.89,243.98S31.49,121.4,76.17,76.73C120.84,32.06,180.23,7.45,243.41,7.45s122.57,24.6,167.24,69.28,69.28,104.07,69.28,167.25-24.6,122.57-69.28,167.25c-44.67,44.67-104.07,69.27-167.24,69.27ZM243.41,19.45c-59.97,0-116.35,23.35-158.76,65.76C42.24,127.62,18.89,184,18.89,243.98s23.35,116.35,65.76,158.76c42.41,42.4,98.79,65.76,158.76,65.76s116.35-23.35,158.76-65.76c42.41-42.41,65.76-98.79,65.76-158.76s-23.35-116.36-65.76-158.76S303.38,19.45,243.41,19.45Z"/><path class="cls-1" d="M339.02,200.5c-3.25-20.65-19.8-32.48-45.5-32.48-9.98,0-19.9,2.3-29.5,6.85.98-11.05-7.01-19.45-15.87-21.55v-12.46c0-2.62-2.13-4.75-4.74-4.75s-4.74,2.13-4.74,4.75v12.46c-8.86,2.1-16.85,10.49-15.87,21.55-9.6-4.55-19.52-6.85-29.5-6.85-25.7,0-42.25,11.83-45.5,32.48-22.78,2.4-34.2,15.92-33.03,39.14.89,17.69,23.26,46.2,36.51,61.62l.22.26h12.59l-1.12-1.25c-9.42-10.5-18.66-22.26-25.37-32.25-8.43-12.56-13.05-22.54-13.36-28.86-.49-9.66,1.56-16.98,6.08-21.74,3.6-3.8,9.2-6.25,16.64-7.29v.36c-.04,1.78-.08,3.62.1,5.61.78,8.81,5.09,20.49,12.8,34.7,3.76,6.92,14.57,25.69,33.78,50.43l.23.29h12.01l-.99-1.22c-.45-.56-45.49-56.28-48.34-84.92-.11-.64-2.57-15.86,6.62-26.74,6.24-7.39,16.38-11.13,30.14-11.13,25.85,0,43.39,18.08,45.37,20.22v103.8h9.49v-103.8c1.98-2.14,19.52-20.22,45.37-20.22,13.75,0,23.89,3.74,30.13,11.12,9.19,10.86,6.74,26.11,6.63,26.81-2.85,28.57-47.88,84.3-48.34,84.86l-.99,1.22h12.01l.23-.29c19.2-24.73,30.02-43.51,33.77-50.43,7.71-14.21,12.02-25.88,12.81-34.7.18-1.99.14-3.83.1-5.62v-.35c7.43,1.04,13.03,3.49,16.63,7.29,4.52,4.76,6.57,12.08,6.09,21.74-.32,6.32-4.94,16.3-13.37,28.86-6.7,9.99-15.95,21.75-25.37,32.25l-1.12,1.25h12.59l.22-.26c13.25-15.42,35.62-43.93,36.51-61.62,1.17-23.22-10.25-36.74-33.03-39.14ZM255.32,173.52c0,6.57-5.33,11.91-11.89,11.91s-11.89-5.34-11.89-11.91,5.33-11.91,11.89-11.91,11.89,5.34,11.89,11.91Z"/><path class="cls-1" d="M243.41,121.54c2.62,0,4.75-2.13,4.75-4.75v-15.99c0-2.62-2.13-4.75-4.75-4.75s-4.75,2.13-4.75,4.75v15.99c0,2.62,2.13,4.75,4.75,4.75Z"/><path class="cls-1" d="M215.42,133.58h16.01c2.62,0,4.75-2.13,4.75-4.75s-2.13-4.75-4.75-4.75h-16.01c-2.62,0-4.75,2.13-4.75,4.75s2.13,4.75,4.75,4.75Z"/><path class="cls-1" d="M255.4,133.58h16.01c2.62,0,4.75-2.13,4.75-4.75s-2.13-4.75-4.75-4.75h-16.01c-2.62,0-4.75,2.13-4.75,4.75s2.13,4.75,4.75,4.75Z"/><rect class="cls-1" x="150.68" y="328.01" width="185.46" height="9.5"/><rect class="cls-1" x="150.68" y="344" width="185.46" height="9.5"/><rect class="cls-1" x="150.68" y="312.02" width="185.46" height="9.5"/></svg>