<?xml version="1.0" encoding="UTF-8"?><svg xmlns="http://www.w3.org/2000/svg" viewBox="0 0 267.5 76.73"><defs><style>.d,.e,.f,.g,.h,.i,.j,.k{fill:#0097a7;}.l{fill:#1e1e1e;}.m{fill:#1d1e1b;}.e{opacity:.2;}.f{opacity:.55;}.g{opacity:.85;}.h{opacity:.7;}.i{opacity:.3;}.j{opacity:.25;}.k{opacity:.4;}</style></defs><g id="a"><g><path class="m" d="M82.6,35.79h-.92c0-1.69-.92-2.45-2.55-2.45-1.4,0-2.2,.69-2.2,1.81,0,1.19,.85,1.54,2.52,1.95,1.89,.46,3.33,.94,3.33,2.91,0,1.74-1.32,2.84-3.4,2.84-2.25,0-3.57-1.19-3.57-3.5h.91c0,1.86,1.05,2.66,2.66,2.66s2.48-.73,2.48-1.99-.91-1.57-2.63-2c-1.92-.48-3.22-.95-3.22-2.86,0-1.56,1.16-2.65,3.12-2.65,2.31,0,3.47,1.12,3.47,3.28Z"/><path class="m" d="M87.5,41.89v.74c-.18,.04-.43,.07-.64,.07-1.22,0-1.74-.55-1.74-1.92v-4.51h-1.27v-.73h1.27v-1.65h.87v1.65h1.44v.73h-1.44v4.5c0,.84,.28,1.18,1.02,1.18,.18,0,.38-.03,.49-.06Z"/><path class="m" d="M91.74,43c-.74,1.85-1.36,2.31-2.75,2.31-.18,0-.36-.01-.52-.06v-.77c.15,.04,.34,.06,.5,.06,1.04,0,1.39-.34,1.97-1.88l-2.8-7.12h.94l2.31,6.01h.03l2.31-6.01h.94l-2.94,7.45Z"/><path class="m" d="M99.42,35.53v.83c-.11-.01-.29-.03-.45-.03-1.42,0-2.21,.92-2.21,2.58v3.75h-.87v-7.12h.85v1.12h.03c.48-.77,1.23-1.18,2.17-1.18,.15,0,.34,.01,.48,.04Z"/><path class="m" d="M105.34,40.55h.9c-.22,1.22-1.22,2.3-3.01,2.3-2.03,0-3.25-1.51-3.25-3.87,0-2.1,1.19-3.61,3.19-3.61,1.6,0,2.7,.97,3.01,2.54,.08,.38,.11,.85,.11,1.37h-5.43c.04,1.89,1.05,2.83,2.37,2.83,1.16,0,1.91-.64,2.12-1.55Zm-4.47-1.99h4.58c-.1-1.58-1.01-2.45-2.28-2.45s-2.21,.92-2.3,2.45Z"/><path class="m" d="M108.18,42.66v-9.97h.87v9.97h-.87Z"/><path class="m" d="M116.22,37.8h-.87c0-1.08-.67-1.68-1.81-1.68-.98,0-1.61,.46-1.61,1.18,0,.87,.56,.98,1.79,1.27,1.33,.31,2.7,.59,2.7,2.2,0,1.23-1.04,2.07-2.66,2.07-1.79,0-2.84-.92-2.87-2.58h.88c0,1.16,.73,1.82,1.99,1.82,1.06,0,1.79-.5,1.79-1.26,0-.94-.62-1.11-2.12-1.46-1.19-.28-2.38-.52-2.38-2,0-1.2,1.02-2,2.48-2,1.68,0,2.66,.88,2.68,2.44Z"/><path class="m" d="M123.23,40.55h.9c-.22,1.22-1.22,2.3-3.01,2.3-2.03,0-3.25-1.51-3.25-3.87,0-2.1,1.19-3.61,3.19-3.61,1.6,0,2.7,.97,3.01,2.54,.08,.38,.11,.85,.11,1.37h-5.43c.04,1.89,1.05,2.83,2.37,2.83,1.16,0,1.91-.64,2.12-1.55Zm-4.47-1.99h4.58c-.1-1.58-1.01-2.45-2.28-2.45s-2.21,.92-2.3,2.45Z"/><path class="m" d="M131.7,38.34v4.33h-.87v-4.29c0-1.68-.69-2.23-1.82-2.23s-2.07,.8-2.07,2.3v4.22h-.87v-7.12h.85v.97h.03c.43-.67,1.23-1.12,2.21-1.12,1.64,0,2.54,.98,2.54,2.94Z"/><path class="m" d="M138.59,34.64v.91h1.44v.73h-1.44v6.39h-.87v-6.39h-1.27v-.73h1.27v-.99c0-1.3,.62-1.92,1.75-1.92,.21,0,.43,.03,.59,.06v.74c-.1-.03-.28-.06-.45-.06-.69,0-1.02,.35-1.02,1.26Z"/><path class="m" d="M147.27,39.11c0,2.33-1.23,3.74-3.25,3.74s-3.25-1.41-3.25-3.74,1.23-3.74,3.25-3.74,3.25,1.41,3.25,3.74Zm-5.59,0c0,1.85,.87,2.98,2.34,2.98s2.35-1.13,2.35-2.98-.88-2.98-2.35-2.98-2.34,1.13-2.34,2.98Z"/><path class="m" d="M152.68,35.53v.83c-.11-.01-.29-.03-.45-.03-1.42,0-2.21,.92-2.21,2.58v3.75h-.87v-7.12h.85v1.12h.03c.48-.77,1.23-1.18,2.17-1.18,.15,0,.34,.01,.48,.04Z"/><path class="m" d="M160.62,32.69c3.25,0,5.1,1.79,5.1,4.99s-1.85,4.99-5.1,4.99h-2.91v-9.97h2.91Zm-2,9.15h2c2.66,0,4.13-1.48,4.13-4.16s-1.47-4.16-4.13-4.16h-2v8.32Z"/><path class="m" d="M172.7,38.1v2.82c0,.73,.07,1.34,.15,1.75h-.81c-.07-.34-.1-.76-.1-1.08h-.03c-.46,.77-1.29,1.22-2.54,1.22-1.46,0-2.41-.85-2.41-2.04s.66-1.86,2.7-2.19c.66-.11,1.55-.21,2.19-.25v-.34c0-1.33-.76-1.88-1.82-1.88-1.21,0-1.81,.66-1.86,1.58h-.91c.08-1.33,1.05-2.33,2.77-2.33,1.6,0,2.66,.85,2.66,2.73Zm-.84,.95c-.6,.04-1.47,.15-2.07,.25-1.43,.21-1.89,.62-1.89,1.4,0,.83,.62,1.37,1.67,1.37,.66,0,1.25-.22,1.64-.63,.48-.5,.66-.9,.66-1.85v-.55Z"/><path class="m" d="M177.59,41.89v.74c-.18,.04-.43,.07-.64,.07-1.22,0-1.74-.55-1.74-1.92v-4.51h-1.27v-.73h1.27v-1.65h.87v1.65h1.44v.73h-1.44v4.5c0,.84,.28,1.18,1.02,1.18,.18,0,.38-.03,.49-.06Z"/><path class="m" d="M184.35,38.1v2.82c0,.73,.07,1.34,.15,1.75h-.81c-.07-.34-.1-.76-.1-1.08h-.03c-.46,.77-1.29,1.22-2.54,1.22-1.46,0-2.41-.85-2.41-2.04s.66-1.86,2.7-2.19c.66-.11,1.55-.21,2.19-.25v-.34c0-1.33-.76-1.88-1.82-1.88-1.21,0-1.81,.66-1.86,1.58h-.91c.08-1.33,1.05-2.33,2.77-2.33,1.6,0,2.66,.85,2.66,2.73Zm-.84,.95c-.6,.04-1.47,.15-2.07,.25-1.43,.21-1.89,.62-1.89,1.4,0,.83,.62,1.37,1.67,1.37,.66,0,1.25-.22,1.64-.63,.48-.5,.66-.9,.66-1.85v-.55Z"/><path class="m" d="M187.76,34.64v.91h1.44v.73h-1.44v6.39h-.87v-6.39h-1.27v-.73h1.27v-.99c0-1.3,.62-1.92,1.75-1.92,.21,0,.43,.03,.59,.06v.74c-.1-.03-.28-.06-.45-.06-.69,0-1.02,.35-1.02,1.26Z"/><path class="m" d="M196.45,39.11c0,2.33-1.23,3.74-3.25,3.74s-3.25-1.41-3.25-3.74,1.23-3.74,3.25-3.74,3.25,1.41,3.25,3.74Zm-5.59,0c0,1.85,.87,2.98,2.34,2.98s2.35-1.13,2.35-2.98-.88-2.98-2.35-2.98-2.34,1.13-2.34,2.98Z"/><path class="m" d="M201.86,35.53v.83c-.11-.01-.29-.03-.45-.03-1.42,0-2.21,.92-2.21,2.58v3.75h-.87v-7.12h.85v1.12h.03c.48-.77,1.23-1.18,2.17-1.18,.15,0,.34,.01,.48,.04Z"/><path class="m" d="M207.83,37.8h-.87c0-1.08-.67-1.68-1.81-1.68-.98,0-1.61,.46-1.61,1.18,0,.87,.56,.98,1.79,1.27,1.33,.31,2.7,.59,2.7,2.2,0,1.23-1.04,2.07-2.66,2.07-1.79,0-2.84-.92-2.87-2.58h.88c0,1.16,.73,1.82,1.99,1.82,1.06,0,1.79-.5,1.79-1.26,0-.94-.62-1.11-2.12-1.46-1.19-.28-2.38-.52-2.38-2,0-1.2,1.02-2,2.48-2,1.68,0,2.66,.88,2.68,2.44Z"/><path class="m" d="M212.07,43c-.74,1.85-1.36,2.31-2.75,2.31-.18,0-.36-.01-.52-.06v-.77c.15,.04,.34,.06,.5,.06,1.04,0,1.39-.34,1.97-1.88l-2.8-7.12h.94l2.31,6.01h.03l2.31-6.01h.94l-2.94,7.45Z"/><path class="m" d="M221.84,38.34v4.33h-.87v-4.29c0-1.68-.69-2.23-1.82-2.23s-2.07,.8-2.07,2.3v4.22h-.87v-7.12h.85v.97h.03c.43-.67,1.23-1.12,2.21-1.12,1.64,0,2.54,.98,2.54,2.94Z"/><path class="m" d="M224.21,33.92v-1.23h.87v1.23h-.87Zm0,8.74v-7.12h.87v7.12h-.87Z"/><path class="m" d="M233.14,38.34v4.33h-.87v-4.29c0-1.68-.69-2.23-1.82-2.23s-2.07,.8-2.07,2.3v4.22h-.87v-7.12h.85v.97h.03c.43-.67,1.23-1.12,2.21-1.12,1.64,0,2.54,.98,2.54,2.94Z"/><path class="m" d="M240.2,36.61h.03v-1.06h.87v6.68c0,2.06-1.04,3.12-2.98,3.12-1.76,0-2.84-.84-2.86-2.24h.88c.03,.97,.78,1.51,1.97,1.51,1.44,0,2.12-.77,2.12-2.44v-.84h-.03c-.48,.8-1.26,1.25-2.19,1.25-1.86,0-3.05-1.43-3.05-3.61s1.19-3.61,3.05-3.61c.94,0,1.71,.43,2.19,1.25Zm-4.33,2.37c0,1.74,.84,2.87,2.17,2.87s2.23-1.09,2.23-2.87-.84-2.87-2.23-2.87-2.17,1.13-2.17,2.87Z"/><path class="m" d="M82.3,54.81c0,2.33-1.23,3.74-3.25,3.74s-3.25-1.41-3.25-3.74,1.23-3.74,3.25-3.74,3.25,1.41,3.25,3.74Zm-5.59,0c0,1.85,.87,2.98,2.34,2.98s2.35-1.13,2.35-2.98-.88-2.98-2.35-2.98-2.34,1.13-2.34,2.98Z"/><path class="m" d="M89.07,52.31h.03v-1.06h.87v6.68c0,2.06-1.04,3.12-2.98,3.12-1.76,0-2.84-.84-2.86-2.24h.88c.03,.97,.78,1.51,1.97,1.51,1.44,0,2.12-.77,2.12-2.44v-.84h-.03c-.48,.8-1.26,1.25-2.19,1.25-1.86,0-3.05-1.43-3.05-3.61s1.19-3.61,3.05-3.61c.94,0,1.71,.43,2.19,1.25Zm-4.33,2.37c0,1.74,.84,2.87,2.17,2.87s2.23-1.09,2.23-2.87-.84-2.87-2.23-2.87-2.17,1.13-2.17,2.87Z"/><path class="m" d="M96.1,58.36v-9.97h.91v9.97h-.91Z"/><path class="m" d="M105.38,54.04v4.33h-.87v-4.29c0-1.68-.69-2.23-1.82-2.23s-2.07,.8-2.07,2.3v4.22h-.87v-7.12h.85v.97h.03c.43-.67,1.23-1.12,2.21-1.12,1.64,0,2.54,.98,2.54,2.94Z"/><path class="m" d="M108.88,50.34v.91h1.44v.73h-1.44v6.39h-.87v-6.39h-1.27v-.73h1.27v-.99c0-1.3,.62-1.92,1.75-1.92,.21,0,.43,.03,.59,.06v.74c-.1-.03-.28-.06-.45-.06-.69,0-1.02,.35-1.02,1.26Z"/><path class="m" d="M115.4,51.23v.83c-.11-.01-.29-.03-.45-.03-1.42,0-2.21,.92-2.21,2.58v3.75h-.87v-7.12h.85v1.12h.03c.48-.77,1.23-1.18,2.17-1.18,.15,0,.34,.01,.48,.04Z"/><path class="m" d="M121.63,53.8v2.82c0,.73,.07,1.34,.15,1.75h-.81c-.07-.34-.1-.76-.1-1.08h-.03c-.46,.77-1.29,1.22-2.54,1.22-1.46,0-2.41-.85-2.41-2.04s.66-1.86,2.7-2.19c.66-.11,1.55-.21,2.19-.25v-.34c0-1.33-.76-1.88-1.82-1.88-1.21,0-1.81,.66-1.86,1.58h-.91c.08-1.33,1.05-2.33,2.77-2.33,1.6,0,2.66,.85,2.66,2.73Zm-.84,.95c-.6,.04-1.47,.15-2.07,.25-1.43,.21-1.89,.62-1.89,1.4,0,.83,.62,1.37,1.67,1.37,.66,0,1.25-.22,1.64-.63,.48-.5,.66-.9,.66-1.85v-.55Z"/><path class="m" d="M128.79,53.5h-.87c0-1.08-.67-1.68-1.81-1.68-.98,0-1.61,.46-1.61,1.18,0,.87,.56,.98,1.79,1.27,1.33,.31,2.7,.59,2.7,2.2,0,1.23-1.04,2.07-2.66,2.07-1.79,0-2.84-.92-2.87-2.58h.88c0,1.16,.73,1.82,1.99,1.82,1.06,0,1.79-.5,1.79-1.26,0-.94-.62-1.11-2.12-1.46-1.19-.28-2.38-.52-2.38-2,0-1.21,1.02-2,2.48-2,1.68,0,2.66,.88,2.68,2.44Z"/><path class="m" d="M133.59,57.59v.74c-.18,.04-.43,.07-.64,.07-1.22,0-1.74-.55-1.74-1.92v-4.51h-1.27v-.73h1.27v-1.65h.87v1.65h1.44v.73h-1.44v4.5c0,.84,.28,1.18,1.02,1.18,.18,0,.38-.03,.49-.06Z"/><path class="m" d="M138.85,51.23v.83c-.11-.01-.29-.03-.45-.03-1.42,0-2.21,.92-2.21,2.58v3.75h-.87v-7.12h.85v1.12h.03c.48-.77,1.23-1.18,2.17-1.18,.15,0,.34,.01,.48,.04Z"/><path class="m" d="M140.28,55.58v-4.33h.87v4.29c0,1.68,.69,2.23,1.82,2.23s2.07-.8,2.07-2.3v-4.22h.87v7.12h-.85v-.97h-.03c-.42,.67-1.23,1.12-2.21,1.12-1.62,0-2.54-.98-2.54-2.94Z"/><path class="m" d="M152.84,58.36l-3.54-3.67h-.03v3.67h-.87v-9.97h.87v5.84h.03l3.17-2.98h1.18l-3.45,3.19,3.85,3.92h-1.21Z"/><path class="m" d="M157.93,57.59v.74c-.18,.04-.43,.07-.64,.07-1.22,0-1.74-.55-1.74-1.92v-4.51h-1.27v-.73h1.27v-1.65h.87v1.65h1.44v.73h-1.44v4.5c0,.84,.28,1.18,1.02,1.18,.18,0,.38-.03,.49-.06Z"/><path class="m" d="M159.6,55.58v-4.33h.87v4.29c0,1.68,.69,2.23,1.82,2.23s2.07-.8,2.07-2.3v-4.22h.87v7.12h-.85v-.97h-.03c-.42,.67-1.23,1.12-2.21,1.12-1.62,0-2.54-.98-2.54-2.94Z"/><path class="m" d="M171.25,51.23v.83c-.11-.01-.29-.03-.45-.03-1.42,0-2.21,.92-2.21,2.58v3.75h-.87v-7.12h.85v1.12h.03c.48-.77,1.23-1.18,2.17-1.18,.15,0,.34,.01,.48,.04Z"/></g></g><g id="b"><circle class="d" cx="36.92" cy="15.11" r="4.25"/><circle class="k" cx="36.92" cy="61.61" r="4.25"/><circle class="h" cx="60.23" cy="38.24" r="4.25"/><circle class="j" cx="13.73" cy="38.24" r="4.25"/><path class="g" d="M56.36,24.87c1.66-1.66,1.66-4.35,0-6.01-1.66-1.66-4.35-1.66-6.01,0s-1.66,4.35,0,6.01c1.66,1.66,4.35,1.66,6.01,0Z"/><path class="i" d="M23.48,57.75c1.66-1.66,1.66-4.35,0-6.01-1.66-1.66-4.35-1.66-6.01,0s-1.66,4.35,0,6.01c1.66,1.66,4.35,1.66,6.01,0Z"/><path class="f" d="M50.54,57.68c1.66,1.66,4.35,1.66,6.01,0s1.66-4.35,0-6.01c-1.66-1.66-4.35-1.66-6.01,0s-1.66,4.35,0,6.01Z"/><path class="e" d="M17.66,24.8c1.66,1.66,4.35,1.66,6.01,0,1.66-1.66,1.66-4.35,0-6.01-1.66-1.66-4.35-1.66-6.01,0-1.66,1.66-1.66,4.35,0,6.01Z"/><g><path class="l" d="M44.4,34.86c-.25-1.77-1.69-2.53-3.5-2.53-.93,0-1.74,.26-2.38,.58,.14-.89-.52-1.59-1.23-1.74v-1.02c0-.17-.14-.31-.31-.31s-.31,.14-.31,.31v1.02c-.71,.14-1.37,.84-1.23,1.74-.64-.31-1.44-.58-2.38-.58-1.81,0-3.25,.77-3.5,2.53-1.74,.17-2.67,1.17-2.57,3,.07,1.36,1.78,3.54,2.84,4.78h.83c-1.3-1.45-2.98-3.68-3.04-4.81-.04-.77,.13-1.36,.49-1.74,.31-.33,.79-.52,1.4-.6,0,.17-.01,.34,0,.53,.07,.76,.47,1.73,.99,2.69,.21,.39,1.06,1.9,2.63,3.93h.79s-3.56-4.39-3.79-6.66c0,0-.54-3.03,2.93-3.03,2.19,0,3.6,1.62,3.6,1.62v8.08h.62v-8.08s1.41-1.62,3.6-1.62c3.47,0,2.93,3.02,2.93,3.03-.23,2.28-3.79,6.66-3.79,6.66h.79c1.58-2.03,2.42-3.55,2.63-3.93,.52-.96,.93-1.93,.99-2.69,.02-.19,0-.36,0-.53,.62,.08,1.09,.27,1.4,.6,.36,.38,.53,.97,.49,1.74-.06,1.13-1.74,3.36-3.04,4.81h.83c1.06-1.24,2.77-3.42,2.84-4.78,.09-1.83-.83-2.83-2.57-3Zm-7.42-1.17c-.55,0-.99-.44-.99-.99s.44-.99,.99-.99,.99,.44,.99,.99-.44,.99-.99,.99Z"/><path class="l" d="M36.98,28.58c.17,0,.31-.14,.31-.31v-1.25c0-.17-.14-.31-.31-.31s-.31,.14-.31,.31v1.25c0,.17,.14,.31,.31,.31Z"/><g><path class="l" d="M34.8,29.52h1.25c.17,0,.31-.14,.31-.31s-.14-.31-.31-.31h-1.25c-.17,0-.31,.14-.31,.31s.14,.31,.31,.31Z"/><path class="l" d="M37.92,29.52h1.25c.17,0,.31-.14,.31-.31s-.14-.31-.31-.31h-1.25c-.17,0-.31,.14-.31,.31s.14,.31,.31,.31Z"/></g><rect class="l" x="29.8" y="44.83" width="14.38" height=".62"/><rect class="l" x="29.8" y="46.08" width="14.38" height=".62"/><polygon class="l" points="29.8 43.58 29.8 43.89 29.8 44.2 44.17 44.2 44.17 43.89 44.17 43.58 29.8 43.58"/></g></g><g id="c"/></svg>